<?xml version="1.0" encoding="UTF-8"?>
<svg width="30px" height="30px" viewBox="0 0 30 30" version="1.1" xmlns="http://www.w3.org/2000/svg" xmlns:xlink="http://www.w3.org/1999/xlink">
    <title>settings-gear-svgrepo-com</title>
    <g id="Page-1" stroke="none" stroke-width="1" fill="none" fill-rule="evenodd">
        <g id="settings-gear-svgrepo-com" fill="#FF6565" fill-rule="nonzero">
            <path d="M29.2399805,10.8 L26.2434961,10.8 C26.1475195,10.4800195 26.0426367,10.2691992 25.9292578,10.0195898 L28.0400391,7.89878906 C28.3522852,7.58648438 28.3524609,7.07519531 28.040332,6.76271484 L23.2374609,1.95175781 C23.0874023,1.80152344 22.8837891,1.71591797 22.6713867,1.71591797 C22.459043,1.71591797 22.2554883,1.79976563 22.1053711,1.95 L19.985625,4.05199219 C19.7342578,3.93662109 19.5200391,3.82945313 19.2,3.73166016 L19.2,0.760019531 C19.2,0.318222656 18.8818359,0 18.4399805,0 L11.64,0 C11.1981445,0 10.8,0.318222656 10.8,0.760019531 L10.8,3.70136719 C10.56,3.800625 10.2861328,3.90966797 10.0252734,4.02808594 L7.95322266,1.94865234 C7.64091797,1.63664063 7.13976562,1.63675781 6.82740234,1.94882813 L2.01884766,6.75732422 C1.70636719,7.06962891 1.70748047,7.57611328 2.01978516,7.88871094 L4.08914062,9.97880859 C3.9684375,10.2417773 3.85787109,10.4800781 3.7565625,10.8001172 L0.84,10.8001172 C0.398144531,10.8 0,11.1182227 0,11.5600195 L0,18.36 C0,18.8017383 0.398144531,19.2 0.84,19.2 L3.7565625,19.2 C3.85769531,19.44 3.96878906,19.7176758 4.08919922,19.980293 L2.01855469,22.0409766 C1.86849609,22.1910352 1.78417969,22.3896094 1.78423828,22.6019531 C1.78429688,22.8142969 1.86873047,23.0152148 2.01890625,23.1652148 L6.83255859,27.9721875 C7.14486328,28.2841992 7.6509375,28.2836133 7.96318359,27.971543 L10.0248633,25.8922852 C10.2857227,26.0105859 10.5598828,26.1193945 10.7998828,26.2187695 L10.7998828,29.1600586 C10.7998828,29.6017969 11.1980273,30.0000586 11.6398828,30.0000586 L18.4398633,30.0000586 C18.8817188,30.0000586 19.1998828,29.6017969 19.1998828,29.1600586 L19.1998828,26.1883594 C19.5198633,26.0905078 19.734375,25.9824609 19.9858008,25.8669727 L22.0952344,27.9877734 C22.2452344,28.1380078 22.4588086,28.2400195 22.6711523,28.2400195 C22.6712109,28.2400195 22.6712109,28.2400195 22.6713281,28.2400195 C22.8835547,28.2400195 23.0871094,28.138125 23.237168,27.9880078 L28.042793,23.1722461 C28.192793,23.0221875 28.2770508,22.8137109 28.2769336,22.6014258 C28.276875,22.3891992 28.1925586,22.1832422 28.0424414,22.0332422 L25.929668,19.940625 C26.0428125,19.6914258 26.1475195,19.44 26.2434375,19.2 L29.2399805,19.2 C29.6818359,19.2 30,18.8017383 30,18.36 L30,11.5600195 C30,11.1182227 29.6818359,10.8 29.2399805,10.8 Z M28.4000391,17.5999805 L25.6739063,17.5999805 C25.3255664,17.5999805 25.0172461,17.8054102 24.9116016,18.1374023 C24.7366406,18.6872461 24.5143359,19.215293 24.2507813,19.7266992 C24.0913477,20.035957 24.1502344,20.4079688 24.3963867,20.6540039 L26.3455664,22.5994336 L22.6715625,26.2742578 L20.734043,24.3336328 C20.4871875,24.0864258 20.1082617,24.0277734 19.798418,24.189082 C19.2848438,24.4566797 18.7251562,24.6821484 18.1744922,24.8597461 C17.8440234,24.9663281 17.6000391,25.2737695 17.6000391,25.6209961 L17.6000391,28.4000391 L12.4000195,28.4000391 L12.4000195,25.6468945 C12.4000195,25.2974414 12.1932422,24.988418 11.8597852,24.8837109 C11.2989258,24.7074609 10.7598047,24.4819336 10.2376758,24.2130469 C9.92865234,24.054082 9.55722656,24.1126172 9.31119141,24.3583008 L7.39541016,26.274082 L3.71460938,22.5962695 L5.62371094,20.6878711 C5.87056641,20.4410156 5.92916016,20.0626172 5.76802734,19.752832 C5.49556641,19.2292383 5.26693359,18.6989063 5.08816406,18.1374023 C4.98246094,17.8054687 4.67431641,17.5999805 4.32597656,17.5999805 L1.60001953,17.5999805 L1.60001953,12.3999609 L4.32609375,12.3999609 C4.67443359,12.3999609 4.98275391,12.1546289 5.08839844,11.8225781 C5.26728516,11.2606055 5.49615234,10.7000977 5.76878906,10.1762695 C5.92992188,9.86677734 5.87173828,9.48339844 5.62505859,9.23648437 L3.71824219,7.32591797 L7.39816406,3.64681641 L9.31658203,5.56207031 C9.5625,5.80769531 9.93890625,5.86617187 10.2479297,5.70708984 C10.7706445,5.43814453 11.2996289,5.21238281 11.8597852,5.03642578 C12.193125,4.93171875 12.4000195,4.62251953 12.4000195,4.27306641 L12.4000195,1.60001953 L17.6000391,1.60001953 L17.6000391,4.29902344 C17.6000391,4.64630859 17.8440234,4.95392578 18.1746094,5.06044922 C18.7252734,5.23798828 19.2747656,5.46357422 19.7880469,5.73099609 C20.0980664,5.89253906 20.4817383,5.83417969 20.7287695,5.58685547 L22.6689844,3.64669922 L26.3421094,7.32275391 L24.3952148,9.27035156 C24.1492383,9.51644531 24.0907617,9.89320313 24.2501953,10.2025195 C24.5138672,10.7142188 24.7365234,11.2725 24.911543,11.8225195 C25.0171289,12.1544531 25.3256836,12.3999609 25.6740234,12.3999609 L28.4000391,12.3999609 L28.4000391,17.5999805 L28.4000391,17.5999805 Z" id="Shape"></path>
            <path d="M15,6.67998047 C10.434375,6.67998047 6.72,10.3943555 6.72,14.9599805 C6.72,19.5256055 10.434375,23.2399805 15,23.2399805 C19.565625,23.2399805 23.28,19.5256055 23.28,14.9599805 C23.28,10.3943555 19.565625,6.67998047 15,6.67998047 Z M15,21.6400195 C11.3166211,21.6400195 8.32001953,18.6433594 8.32001953,14.9600391 C8.32001953,11.2767188 11.3166211,8.28 15,8.28 C18.6833789,8.28 21.6799805,11.2766602 21.6799805,14.9599805 C21.6799805,18.6433008 18.6833789,21.6400195 15,21.6400195 Z" id="Shape"></path>
            <path d="M15,10.4800195 C12.5297461,10.4800195 10.5199805,12.4897266 10.5199805,14.9600391 C10.5199805,17.4303516 12.5297461,19.4400586 15,19.4400586 C17.4702539,19.4400586 19.4800195,17.4303516 19.4800195,14.9600391 C19.4800195,12.489668 17.4702539,10.4800195 15,10.4800195 Z M15,17.8399805 C13.4119336,17.8399805 12.12,16.5480469 12.12,14.9599805 C12.12,13.3719141 13.4119336,12.0799805 15,12.0799805 C16.5880664,12.0799805 17.88,13.3719141 17.88,14.9599805 C17.88,16.5480469 16.5880664,17.8399805 15,17.8399805 Z" id="Shape"></path>
        </g>
    </g>
</svg>
